<svg id="gun" xmlns="http://www.w3.org/2000/svg" xmlns:xlink="http://www.w3.org/1999/xlink" viewBox="0 0 250.66 145.16"><defs><style>.cls-1{fill:url(#radial-gradient);}.cls-2{fill:url(#linear-gradient);}.cls-3{fill:#00ff67;}.cls-4{fill:#ff7300;}.cls-5{fill:#090708;}.cls-6{fill:#0bff5c;}.cls-6,.cls-7{stroke:#000;stroke-miterlimit:10;stroke-width:0.25px;}.cls-8{fill:#fc0000;}.cls-9{fill:#0bff3f;}.cls-10{fill:#e8ff06;}.cls-11{fill:#3f3f3f;}.cls-12{fill:url(#linear-gradient-2);}.cls-13{fill:url(#linear-gradient-3);}</style><radialGradient id="radial-gradient" cx="181.27" cy="-12.22" r="72.09" gradientUnits="userSpaceOnUse"><stop offset="0" stop-color="aqua"/><stop offset="0.66" stop-color="#0f5"/><stop offset="1" stop-color="lime"/></radialGradient><linearGradient id="linear-gradient" x1="135.29" y1="37.15" x2="210.78" y2="-4.87" xlink:href="#radial-gradient"/><linearGradient id="linear-gradient-2" x1="400.8" y1="165.15" x2="336.32" y2="199.2" gradientTransform="translate(-212.07 -152.24) rotate(0.54)" xlink:href="#radial-gradient"/><linearGradient id="linear-gradient-3" x1="143.71" y1="29.91" x2="199.9" y2="29.91" xlink:href="#radial-gradient"/></defs><title>small_gun</title><g id="gun-2" data-name="gun"><polyline class="cls-1" points="181.87 9.65 193.45 14.83 149.66 11.69 144.28 7.96 150.9 3.96 175.61 4.65"/><polygon class="cls-2" points="200.73 18.09 194.68 21.55 149.38 19.42 144.28 15.69 149.66 11.69 195.92 14.95 200.73 18.09"/><path id="main_gun" class="cls-3" d="M343.84,223s11,12,18.12,12.89l70.88-20.81s7.81,0.28,12.94-2.7l19-5.6-14-26.43L442,168.1l-4.88-2-12.27-11.35-18.48-9.11-12.67-1.06-4.35,4.49,12.67,9.63,8,0.92,4.75,3-6.2,3.3,8.45,2.38,6.6,13.86-3.7,4.62-34.44,1.58-34.71,2.64-5.54-17.42-39.06,3.7L275,183.94l-2.11-2.64-36.55,9.24-6.6,5.81,4.22,1.85,42.1-.26-0.13,9.37-38.66,9.5L235,221.42v1.33l5.5,1.18,0.55,2.9-6.59-1.32,0.14,5.41,8.32,16.76,31.54,29,26.53,10,37.35,3,2.51-7.26-10.29-8.31-47.11-16.76-22.7-14.78L254.34,231,250,230v-6.42l18.83-.24s24.58,5.82,41.49,2.5Z" transform="translate(-214.26 -144.61)"/><path id="black_bottom" class="cls-4" d="M240.64,226.71L250.9,230l-0.28-5.82,18-.55s28.56,5.27,41.86,2.22l2.22,23.29-3.56,17.52,10.09,3.55,5.39-16.64L323,224.77l20.52-1.5,12.73,11,6.12,2.17,70.42-21.35,8.87-.55,8-3.6,15.25-4.16-1.94-3-28.28,1.94s-63.21,6.38-69,5.82l-40.2,8.87-42.42,2.22s-1.39-5.82-.28-5.82c0,0-9.43-3-47.13,3.33,0,0-1.38,1.6-.29,2.91l5.24,1Z" transform="translate(-214.26 -144.61)"/><polygon id="Black_details" class="cls-5" points="40.42 86.43 45.6 88.01 51.9 99.71 74.63 113.67 115.93 128.18 126.56 137.9 126.32 138.52 116 129.53 69.02 112.92 46.35 98.02 40.42 86.43"/><path class="cls-4" d="M307.52,187.9l30.84-2.07,3.17,8.12,46.4-3.3-5,10.74-64.16,3.3S316.61,191.76,307.52,187.9Z" transform="translate(-214.26 -144.61)"/><rect class="cls-6" x="319.64" y="195.06" width="31.85" height="2.07" rx="1.03" ry="1.03" transform="translate(-224.05 -126.81) rotate(-3)"/><rect class="cls-7" x="331.26" y="196.27" width="2.07" height="8.51" rx="1.03" ry="1.03" transform="translate(300.91 -286.4) rotate(87)"/><circle class="cls-8" cx="362.61" cy="194.26" r="1.22" transform="translate(-254.72 -32.59) rotate(-16.65)"/><circle class="cls-9" cx="362.89" cy="197.24" r="1.22" transform="translate(-255.56 -32.38) rotate(-16.65)"/><circle class="cls-10" cx="363.18" cy="200.21" r="1.22" transform="translate(-256.4 -32.18) rotate(-16.65)"/><rect class="cls-11" x="347.4" y="191.25" width="2.07" height="15.53" rx="1.03" ry="1.03" transform="translate(314.7 -303.95) rotate(87)"/><path class="cls-4" d="M276.18,197.74l-54.12.23s-8.44.56-7.75,8.11a32.77,32.77,0,0,1,.08,3.57c0,2.61.72,6.88,6.4,6.44l16.35,0.76,38.72-9.14S277.32,207.25,276.18,197.74Z" transform="translate(-214.26 -144.61)"/><path class="cls-11" d="M235.19,197.87s-4.15,6.21-.6,18.63l-1.67,0s-3-12.23.5-18.56Z" transform="translate(-214.26 -144.61)"/><path class="cls-11" d="M255.65,198s-4.15,5-.6,14.28l-1.61.4s-3.08-10,.47-14.72Z" transform="translate(-214.26 -144.61)"/><polygon class="cls-11" points="137.95 30.93 206.98 32.89 209.59 37.66 205.68 42.66 136.57 46.58 132.65 34.05 137.95 30.93"/><polygon class="cls-12" points="200.44 25.62 194.2 29.29 149.59 27.08 144.15 22.74 150.81 19.21 194.68 21.56 200.44 25.62"/><polygon class="cls-13" points="143.71 31.11 149.52 27.01 194.24 29.08 199.9 32.81 143.71 31.11"/><polygon class="cls-11" points="187.03 11.86 186.22 32.53 181.01 32.44 181.87 9.65 187.03 11.86"/></g></svg>