<svg id="gun" xmlns="http://www.w3.org/2000/svg" xmlns:xlink="http://www.w3.org/1999/xlink" viewBox="0 0 864.23 500.49"><defs><style>.cls-1{fill:url(#radial-gradient);}.cls-2{fill:url(#linear-gradient);}.cls-3{fill:#00ff67;}.cls-4{fill:#ff7300;}.cls-5{fill:#090708;}.cls-6{fill:#0bff5c;}.cls-6,.cls-7{stroke:#000;stroke-miterlimit:10;stroke-width:0.25px;}.cls-8{fill:#fc0000;}.cls-9{fill:#0bff3f;}.cls-10{fill:#e8ff06;}.cls-11{fill:#3f3f3f;}.cls-12{fill:url(#linear-gradient-2);}.cls-13{fill:url(#linear-gradient-3);}</style><radialGradient id="radial-gradient" cx="624.98" cy="-42.14" r="248.57" gradientUnits="userSpaceOnUse"><stop offset="0" stop-color="aqua"/><stop offset="0.66" stop-color="#0f5"/><stop offset="1" stop-color="lime"/></radialGradient><linearGradient id="linear-gradient" x1="466.44" y1="128.09" x2="726.71" y2="-16.81" xlink:href="#radial-gradient"/><linearGradient id="linear-gradient-2" x1="859.26" y1="201.68" x2="636.95" y2="319.06" gradientTransform="translate(-212.07 -152.24) rotate(0.54)" xlink:href="#radial-gradient"/><linearGradient id="linear-gradient-3" x1="495.47" y1="103.12" x2="689.22" y2="103.12" xlink:href="#radial-gradient"/></defs><title>gun</title><g id="gun-2" data-name="gun"><polyline class="cls-1" points="627.03 33.27 666.97 51.12 515.99 40.3 497.43 27.45 520.27 13.64 605.46 16.02"/><polygon class="cls-2" points="692.06 62.39 671.22 74.3 515.03 66.95 497.43 54.1 515.99 40.3 675.48 51.54 692.06 62.39"/><path id="main_gun" class="cls-3" d="M661,415s38,41.39,62.48,44.45l244.39-71.74s26.91,1,44.6-9.32L1077.87,359l-48.24-91.14-30-42.31-16.84-6.82-42.32-39.13-63.7-31.39-43.68-3.64-15,15.47,43.68,33.21,27.75,3.18,16.38,10.46-21.38,11.37,29.12,8.19,22.75,47.77-12.74,15.92-118.75,5.46-119.66,9.1-19.11-60.06L531.41,257.45,423.58,280.2l-7.28-9.1-126,31.85-22.75,20,14.56,6.37,145.14-.91-0.45,32.3L293.59,393.49,286,409.41V414l18.83,4.06,1.82,10-22.75-4.55,0.45,18.65L313,500l108.74,100.1,91.45,34.58L642,645.1l8.64-25-35.49-28.66L452.7,533.63l-78.26-51-20.74-40-13.7-3.5V417l63.67-.81s84.11,20.07,142.42,8.6Z" transform="translate(-214.26 -144.61)"/><path id="black_bottom" class="cls-4" d="M305.22,427.66l35.37,11.47-1-20.07,62.13-1.91s98.45,18.16,144.33,7.65l7.65,80.29-12.26,60.41,34.79,12.25,18.58-57.37L589.1,421l70.75-5.16,43.88,37.83,21.1,7.48,242.78-73.6,30.59-1.91,27.72-12.43,52.57-14.34-6.69-10.51L974.3,355s-217.93,22-238,20.07L597.7,405.67l-146.24,7.65s-4.78-20.07-1-20.07c0,0-32.5-10.51-162.49,11.47,0,0-4.75,5.51-1,10l18.07,3.39Z" transform="translate(-214.26 -144.61)"/><polygon id="Black_details" class="cls-5" points="139.36 297.99 157.2 303.43 178.93 343.78 257.31 391.89 399.71 441.94 436.37 475.43 435.51 477.58 399.94 446.61 237.98 389.33 159.8 337.94 139.36 297.99"/><path class="cls-4" d="M535.8,293.87l106.33-7.12,10.92,28,160-11.39-17.09,37L574.72,351.78S567.13,307.16,535.8,293.87Z" transform="translate(-214.26 -144.61)"/><rect class="cls-6" x="577.58" y="318.55" width="109.82" height="7.12" rx="3.56" ry="3.56" transform="translate(-230.23 -111.12) rotate(-3)"/><rect class="cls-7" x="617.63" y="322.71" width="7.12" height="29.35" rx="3.56" ry="3.56" transform="translate(711.39 -445.21) rotate(87)"/><circle class="cls-8" cx="725.72" cy="315.81" r="4.19" transform="translate(-274.32 76.53) rotate(-16.65)"/><circle class="cls-9" cx="726.7" cy="326.05" r="4.19" transform="translate(-277.21 77.24) rotate(-16.65)"/><circle class="cls-10" cx="727.69" cy="336.29" r="4.19" transform="translate(-280.1 77.95) rotate(-16.65)"/><rect class="cls-11" x="673.28" y="305.42" width="7.12" height="53.54" rx="3.56" ry="3.56" transform="translate(758.94 -505.7) rotate(87)"/><path class="cls-4" d="M427.73,327.8l-186.61.79s-29.09,1.91-26.72,28a113,113,0,0,1,.29,12.32c-0.17,9,2.5,23.72,22.07,22.19l56.35,2.63,133.49-31.53S431.66,360.57,427.73,327.8Z" transform="translate(-214.26 -144.61)"/><path class="cls-11" d="M286.4,328.24s-14.31,21.41-2.08,64.22l-5.77-.12s-10.5-42.15,1.73-64Z" transform="translate(-214.26 -144.61)"/><path class="cls-11" d="M357,328.81s-14.31,17.25-2.08,49.24l-5.53,1.38S338.74,345,351,328.7Z" transform="translate(-214.26 -144.61)"/><polygon class="cls-11" points="475.62 106.65 713.63 113.39 722.62 129.85 709.14 147.07 470.87 160.59 457.35 117.4 475.62 106.65"/><polygon class="cls-12" points="691.08 88.33 669.54 100.97 515.75 93.36 497 78.4 519.96 66.25 671.22 74.34 691.08 88.33"/><polygon class="cls-13" points="495.47 107.26 515.51 93.12 669.71 100.26 689.22 113.11 495.47 107.26"/><polygon class="cls-11" points="644.84 40.9 642.02 112.16 624.09 111.83 627.03 33.27 644.84 40.9"/></g></svg>